<?xml version="1.0" encoding="UTF-8"?>
<svg width="100px" height="100px" viewBox="0 0 100 100" version="1.1" xmlns="http://www.w3.org/2000/svg" xmlns:xlink="http://www.w3.org/1999/xlink">
    <!-- Generator: Sketch 47.1 (45422) - http://www.bohemiancoding.com/sketch -->
    <title>query</title>
    <desc>Created with Sketch.</desc>
    <defs></defs>
    <g id="Icons" stroke="none" stroke-width="1" fill="none" fill-rule="evenodd">
        <g id="query">
            <circle id="Oval" fill="#8F98A3" cx="50" cy="50" r="50"></circle>
            <path d="M40.3643973,46.4447545 C43.5065261,47.1006357 46.8850266,47.4285714 50.5,47.4285714 C54.1149734,47.4285714 57.4934739,47.1006357 60.6356027,46.4447545 C63.7777315,45.7888732 66.2563153,44.8203189 68.0714286,43.5390625 L68.0714286,47.4285714 C68.0714286,48.481032 67.2859082,49.4572128 65.7148438,50.3571429 C64.1437793,51.257073 62.008384,51.9701425 59.3085938,52.4963728 C56.6088035,53.0226031 53.6726349,53.2857143 50.5,53.2857143 C47.3273651,53.2857143 44.3911965,53.0226031 41.6914063,52.4963728 C38.991616,51.9701425 36.8562207,51.257073 35.2851563,50.3571429 C33.7140918,49.4572128 32.9285714,48.481032 32.9285714,47.4285714 L32.9285714,43.5390625 C34.7436847,44.8203189 37.2222685,45.7888732 40.3643973,46.4447545 Z M40.3643973,64.016183 C43.5065261,64.6720643 46.8850266,65 50.5,65 C54.1149734,65 57.4934739,64.6720643 60.6356027,64.016183 C63.7777315,63.3603018 66.2563153,62.3917475 68.0714286,61.1104911 L68.0714286,65 C68.0714286,66.0524606 67.2859082,67.0286413 65.7148438,67.9285714 C64.1437793,68.8285015 62.008384,69.541571 59.3085938,70.0678013 C56.6088035,70.5940316 53.6726349,70.8571429 50.5,70.8571429 C47.3273651,70.8571429 44.3911965,70.5940316 41.6914063,70.0678013 C38.991616,69.541571 36.8562207,68.8285015 35.2851563,67.9285714 C33.7140918,67.0286413 32.9285714,66.0524606 32.9285714,65 L32.9285714,61.1104911 C34.7436847,62.3917475 37.2222685,63.3603018 40.3643973,64.016183 Z M40.3643973,55.2304688 C43.5065261,55.88635 46.8850266,56.2142857 50.5,56.2142857 C54.1149734,56.2142857 57.4934739,55.88635 60.6356027,55.2304688 C63.7777315,54.5745875 66.2563153,53.6060332 68.0714286,52.3247768 L68.0714286,56.2142857 C68.0714286,57.2667463 67.2859082,58.242927 65.7148438,59.1428571 C64.1437793,60.0427872 62.008384,60.7558567 59.3085938,61.2820871 C56.6088035,61.8083174 53.6726349,62.0714286 50.5,62.0714286 C47.3273651,62.0714286 44.3911965,61.8083174 41.6914063,61.2820871 C38.991616,60.7558567 36.8562207,60.0427872 35.2851563,59.1428571 C33.7140918,58.242927 32.9285714,57.2667463 32.9285714,56.2142857 L32.9285714,52.3247768 C34.7436847,53.6060332 37.2222685,54.5745875 40.3643973,55.2304688 Z M41.6914063,30.6579241 C44.3911965,30.1240673 47.3273651,29.8571429 50.5,29.8571429 C53.6726349,29.8571429 56.6088035,30.1202541 59.3085938,30.6464844 C62.008384,31.1727147 64.1437793,31.8857842 65.7148438,32.7857143 C67.2859082,33.6856444 68.0714286,34.6618251 68.0714286,35.7142857 L68.0714286,38.6428571 C68.0714286,39.6953178 67.2859082,40.6714985 65.7148438,41.5714286 C64.1437793,42.4713587 62.008384,43.1844282 59.3085938,43.7106585 C56.6088035,44.2368888 53.6726349,44.5 50.5,44.5 C47.3273651,44.5 44.3911965,44.2368888 41.6914063,43.7106585 C38.991616,43.1844282 36.8562207,42.4713587 35.2851563,41.5714286 C33.7140918,40.6714985 32.9285714,39.6953178 32.9285714,38.6428571 L32.9285714,35.7142857 C32.9285714,34.6618251 33.7140918,33.6856444 35.2851563,32.7857143 C36.8562207,31.8857842 38.991616,31.1765279 41.6914063,30.6579241 Z" id="Database" fill="#FFFFFF"></path>
        </g>
    </g>
</svg>